<svg width="512" height="512" viewBox="0 0 512 512" fill="none" xmlns="http://www.w3.org/2000/svg">
<g clip-path="url(#clip0_1230_49)">
<rect width="512" height="512" rx="52" fill="#FF3D00"/>
<path d="M272.803 148.103H305.331V289.444C305.331 304.484 301.798 317.81 294.733 329.422C287.668 340.965 277.734 350.059 264.933 356.704C252.131 363.28 237.126 366.568 219.918 366.568C202.779 366.568 187.809 363.28 175.008 356.704C162.206 350.059 152.273 340.965 145.207 329.422C138.142 317.81 134.609 304.484 134.609 289.444V148.103H167.033V286.821C167.033 296.544 169.166 305.183 173.434 312.738C177.771 320.293 183.892 326.239 191.796 330.577C199.701 334.844 209.075 336.977 219.918 336.977C230.83 336.977 240.239 334.844 248.144 330.577C256.119 326.239 262.205 320.293 266.402 312.738C270.669 305.183 272.803 296.544 272.803 286.821V148.103ZM377.507 148.103V363H345.084V148.103H377.507Z" fill="white"/>
</g>
<defs>
<clipPath id="clip0_1230_49">
<rect width="512" height="512" fill="white"/>
</clipPath>
</defs>
</svg>
